PathFileType	4	(X/Y/Z)	OpenSim_Sub07_EMGBaseline_Accel.trc
DataRate	CameraRate	NumFrames	NumMarkers	Units	OrigDataRate	OrigDataStartFrame	OrigNumFrames
100	100	20	8	m	100	5122	6828
Frame#	Time	torso_imu_offset_imu	pelvis_imu_offset_imu	tibia_r_imu_offset_imu	femur_r_imu_offset_imu	tibia_l_imu_offset_imu	femur_l_imu_offset_imu	toes_r_imu_offset_imu	toes_l_imu_offset_imu
				X1	Y1	Z1	X2	Y2	Z2	X3	Y3	Z3	X4	Y4	Z4	X5	Y5	Z5	X6	Y6	Z6	X7	Y7	Z7	X8		Y8	Z8	

5122	51.21000000	-9.62558400	0.58584800	5.52352900	9.73698700	-0.29720600	3.22134800	1.43692500	10.35126100	-3.16843200	11.35409900	-0.29246500	2.26104300	9.64439500	-2.59428200	0.33462700	9.59229400	-1.72474600	-2.33390800	26.95111400	15.82132100	20.78695200	5.39945700	0.77401300	10.97928400
5123	51.22000000	-9.69857900	0.59641100	5.58360400	9.76033300	-0.52526400	3.15352700	2.29012100	13.93164900	-4.07502000	11.98944700	-0.20517200	2.04388900	9.90589400	-1.70292900	0.12652400	9.51477500	-0.84477100	-2.21538200	16.50198700	7.86151500	16.41298100	5.76872300	0.80605700	10.83191000
5124	51.23000000	-9.72092000	0.67781100	5.66915400	9.87849800	-0.56024700	3.14434300	3.22085500	15.14517000	-3.72999000	12.34829800	-0.31402700	2.17119600	10.09186400	-1.44797500	-0.18789000	9.56604500	-0.05262500	-2.35281900	9.84174500	0.64848100	11.30249100	4.96708300	1.08751000	11.20709900
5125	51.24000000	-9.68413500	0.74143700	5.65784600	9.97108100	-0.55042000	3.13752300	3.79568900	13.37749600	-2.93471800	11.94375600	-0.94580300	2.43350900	10.04878900	-1.81988400	-0.56981800	9.73618900	0.90422800	-2.34254300	6.71284800	-2.80399900	7.92471800	5.09994500	1.42026000	11.03095100
5126	51.25000000	-9.76335600	0.85510200	5.85706800	10.14336500	-0.54185300	3.14015800	4.03237100	11.18094200	-2.03847200	11.40880400	-1.64515500	2.71414900	9.85114700	-2.46551900	-0.54171500	9.81815900	1.67180700	-2.29921000	4.52458900	-4.41587900	5.82125600	5.41266500	1.37194600	11.07734500
5127	51.26000000	-9.58637900	0.97455200	5.93715000	10.12496200	-0.42957600	3.21860000	3.79713000	9.73649600	-1.86442800	11.35798100	-2.03968300	2.63931100	9.53302100	-3.28576000	-0.53963000	9.65953500	2.14961200	-2.29027400	2.43535000	-5.90757900	4.80334200	5.50587800	1.25774200	10.79842900
5128	51.27000000	-9.35855300	1.07953000	5.99089400	9.96700200	-0.17028100	3.12898300	3.29702600	9.11532700	-1.42188100	11.43347900	-2.43166900	2.45883300	9.59204100	-3.33378800	-0.54232500	9.35314900	2.10232600	-2.21851900	1.62020000	-7.36322600	4.00971100	5.63597500	1.23015200	10.79150500
5129	51.28000000	-9.24842200	1.13959300	6.01072900	9.89263100	0.04000600	3.13506900	2.72302200	8.28351300	-0.51635900	11.54760100	-2.53261600	2.29416800	9.62910100	-3.33936600	-0.33378600	9.27152600	1.85095900	-2.48352200	1.78136800	-7.47124200	3.61506900	5.13624100	1.23420700	11.04084300
5130	51.29000000	-9.01352700	1.19112200	6.04865500	9.77818800	0.32642100	3.07835900	2.27812800	6.84555200	0.39565800	11.11292500	-2.41849500	1.91317600	9.47399800	-2.82556000	-0.19095100	9.40677200	1.39793200	-2.52411700	2.56182900	-5.74796100	4.23469800	5.46925900	1.22333800	10.92948700
5131	51.30000000	-8.76743400	1.27602700	6.08725300	9.61587900	0.44163100	3.06804900	2.24524000	5.66368700	0.69708300	10.82819700	-1.75685900	1.84661200	9.42948400	-2.81165400	-0.29231000	9.42893700	0.74594400	-2.43280300	4.38684400	-2.24541900	5.04842600	5.52891100	1.10908100	10.79194000
5132	51.31000000	-8.68815500	1.26217100	5.94516900	9.36634200	0.50746900	2.91882100	2.36504700	4.56674900	0.48361700	10.34507700	-1.52368200	1.96568400	9.59813900	-3.14356600	-0.16768100	9.41020500	0.51855200	-2.45868700	5.53137800	-0.58304300	5.71373100	5.78517500	1.25733000	10.59104700
5133	51.32000000	-8.68203000	1.23378800	5.89636200	9.27484400	0.54203700	2.90661200	2.65616100	4.21060300	1.55233200	10.00933700	-1.24070600	2.09487400	9.50642800	-3.44215400	-0.29460500	9.37293700	0.56524800	-2.61214500	5.75527300	2.63685500	5.98194300	5.34831300	1.31180600	10.96596000
5134	51.33000000	-8.64159500	1.19032600	5.92253500	9.10694900	0.34771100	2.97410300	3.20874200	3.62241300	-0.10653300	9.25252700	-1.01923500	1.93027900	9.43278700	-3.36432600	-0.15492100	9.42176000	0.26129200	-2.45524900	5.12656100	2.71473700	6.14709600	5.82462300	1.25868700	10.61271900
5135	51.34000000	-8.64451100	1.10753000	5.96063800	9.07126600	0.15042800	2.89603300	4.00883900	3.44000800	-0.33555500	8.72508600	-1.09092200	1.90341500	9.45813500	-3.53874900	-0.11659300	9.46246300	-0.00722000	-2.28263200	4.79835800	2.54480900	5.90805800	5.80331400	1.06341600	10.53694900
5136	51.35000000	-8.63156000	0.98292400	5.96785300	9.03209200	-0.09387200	2.85133300	4.47071900	3.64441200	-1.46922000	8.38088800	-0.77413900	1.81691700	9.48178400	-3.45932200	-0.07663300	9.43182000	-0.07249500	-2.32999400	4.01073800	2.66552100	5.83250500	5.92904300	1.26318600	10.58806100
5137	51.36000000	-8.62419300	0.85897300	6.00976800	9.10961400	-0.30233700	2.73970500	5.09576600	4.01033800	-1.92884200	8.18401700	-0.73155900	1.42802200	9.50623200	-3.02998900	-0.07835200	9.52972400	0.42143500	-2.44573300	3.58569600	3.53306700	6.05995900	5.35278700	1.39264100	10.87179100
5138	51.37000000	-8.63099900	0.75803100	6.03178600	9.14641200	-0.42051200	2.70848300	5.57797900	4.67034600	-1.68738700	8.13253300	-0.51731000	0.98008100	9.36702700	-2.66553600	-0.21783900	9.42627900	0.39845900	-2.47235300	4.45350200	4.51272900	6.54318200	5.53167900	1.50110500	10.76655800
5139	51.38000000	-8.67534400	0.61390500	6.03248500	9.05824400	-0.55751100	2.66969900	5.74136700	5.23724300	-2.08439800	8.43513900	-0.26194000	0.85524700	9.25197900	-2.48872300	-0.27872200	9.17759100	-0.17488900	-2.20865900	5.54805800	5.39836100	6.81401200	5.73493100	1.60004400	10.54788300
5140	51.39000000	-8.69895800	0.55021200	6.08614900	9.15352600	-0.45127600	2.61870400	5.57581400	5.14003700	-1.69072900	8.48300800	-0.24421900	1.07291000	9.37596000	-2.51182700	-0.31146100	9.10252600	-0.09334000	-2.17557500	5.93464500	5.15734400	6.45478500	5.87912900	1.57999000	10.55534800
5141	51.40000000	-8.65413200	0.53214900	6.14961400	9.26891200	-0.56535000	2.49002700	5.58548600	5.80177800	-0.71612100	8.05311600	-0.22313200	1.18859100	9.57088300	-2.43450800	-0.69753300	9.26694600	0.48796100	-2.41165900	6.13025700	4.44323700	5.94788800	5.60415400	1.50381900	10.63614500
